<?xml version="1.0" encoding="UTF-8" standalone="no"?>
<svg
   xmlns:dc="http://purl.org/dc/elements/1.1/"
   xmlns:cc="http://creativecommons.org/ns#"
   xmlns:rdf="http://www.w3.org/1999/02/22-rdf-syntax-ns#"
   xmlns:svg="http://www.w3.org/2000/svg"
   xmlns="http://www.w3.org/2000/svg"
   xmlns:sodipodi="http://sodipodi.sourceforge.net/DTD/sodipodi-0.dtd"
   xmlns:inkscape="http://www.inkscape.org/namespaces/inkscape"
   width="18px"
   height="16px"
   version="1.1"
   viewBox="0 0 18 16"
   id="svg12"
   sodipodi:docname="bath.svg"
   inkscape:export-filename="/home/felix/Documentos/projects/clasi-templates/clasi/static/icons/bath.png"
   inkscape:export-xdpi="96"
   inkscape:export-ydpi="96"
   inkscape:version="1.0.1 (0767f8302a, 2020-10-17)">
  <metadata
     id="metadata18">
    <rdf:RDF>
      <cc:Work
         rdf:about="">
        <dc:format>image/svg+xml</dc:format>
        <dc:type
           rdf:resource="http://purl.org/dc/dcmitype/StillImage" />
        <dc:title>baño</dc:title>
      </cc:Work>
    </rdf:RDF>
  </metadata>
  <defs
     id="defs16" />
  <sodipodi:namedview
     pagecolor="#ffffff"
     bordercolor="#666666"
     borderopacity="1"
     objecttolerance="10"
     gridtolerance="10"
     guidetolerance="10"
     inkscape:pageopacity="0"
     inkscape:pageshadow="2"
     inkscape:window-width="1440"
     inkscape:window-height="836"
     id="namedview14"
     showgrid="false"
     inkscape:zoom="20"
     inkscape:cx="8.0475486"
     inkscape:cy="8.0597546"
     inkscape:window-x="0"
     inkscape:window-y="27"
     inkscape:window-maximized="1"
     inkscape:current-layer="g9" />
  <title
     id="title2">baño</title>
  <g
     id="02.-dashboard"
     fill="none"
     fill-rule="evenodd"
     style="fill:#e50b4c">
    <g
       transform="translate(-604 -1053)"
       fill="#002438"
       style="fill:#e50b4c"
       id="g9">
      <g
         id="baño"
         transform="translate(604 1053)"
         style="fill:#000000">
        <path
           d="m1.006 8.531h15.155v-1.036h-15.155v1.036zm4.617-2.06c0-0.565 0.46-1.025 1.025-1.025 0.141 0 0.278 0.028 0.407 0.084l0.373 0.161 0.236-0.33c0.193-0.269 0.504-0.43 0.834-0.43 0.086 0 0.171 0.011 0.254 0.032l0.439 0.111 0.157-0.426c0.216-0.588 0.781-0.982 1.408-0.982 0.426 0 0.833 0.182 1.118 0.501l0.279 0.312 0.358-0.218c0.31-0.19 0.668-0.29 1.033-0.29 1.095 0 1.986 0.89 1.986 1.985 0 0.183-0.025 0.361-0.072 0.533h-9.834c0-6e-3 -1e-3 -0.012-1e-3 -0.018zm9.936 4.119c0 1.678-1.361 3.04-3.04 3.04h-7.871c-1.68 0-3.041-1.362-3.041-3.04v-1.052h1e-3 13.951v1.052zm1.608-4.1h-0.679c0.032-0.175 0.048-0.353 0.048-0.534 0-1.65-1.342-2.991-2.992-2.991-0.418 0-0.831 0.088-1.209 0.256-0.444-0.361-1.001-0.561-1.579-0.561-0.907 0-1.738 0.495-2.178 1.267-0.027-1e-3 -0.054-1e-3 -0.08-1e-3 -0.526 0-1.029 0.206-1.404 0.563-0.452-0.101-0.94-0.046-1.426 0.175-0.685 0.31-1.067 1.056-1.051 1.808l1e-3 0.018h-4.617-1e-3v3.047h0.602v1.053c0 1.662 1.007 3.092 2.443 3.715v0.689h-0.872v1.006h1.878v-1.408c0.195 0.028 0.393 0.044 0.596 0.044h7.873c0.202 0 0.401-0.016 0.595-0.044v1.408h1.879v-1.006h-0.873v-0.689c1.436-0.623 2.444-2.053 2.444-3.715v-1.053h0.602v-3.047z"
           style="fill:#000000"
           id="path4" />
        <path
           d="m5.8536 1.0057c0.292 0 0.529 0.237 0.529 0.529 0 0.291-0.237 0.529-0.529 0.529s-0.529-0.238-0.529-0.529c0-0.292 0.237-0.529 0.529-0.529m0 2.063c0.846 0 1.535-0.688 1.535-1.534s-0.689-1.535-1.535-1.535-1.535 0.689-1.535 1.535 0.689 1.534 1.535 1.534"
           style="fill:#000000"
           id="path6" />
      </g>
    </g>
  </g>
</svg>
