<?xml version="1.0" encoding="UTF-8" standalone="no"?>
<svg
   xmlns:dc="http://purl.org/dc/elements/1.1/"
   xmlns:cc="http://creativecommons.org/ns#"
   xmlns:rdf="http://www.w3.org/1999/02/22-rdf-syntax-ns#"
   xmlns:svg="http://www.w3.org/2000/svg"
   xmlns="http://www.w3.org/2000/svg"
   xmlns:sodipodi="http://sodipodi.sourceforge.net/DTD/sodipodi-0.dtd"
   xmlns:inkscape="http://www.inkscape.org/namespaces/inkscape"
   width="20px"
   height="18px"
   version="1.1"
   viewBox="0 0 20 18"
   id="svg9"
   sodipodi:docname="surface.svg"
   inkscape:version="1.0.1 (0767f8302a, 2020-10-17)">
  <metadata
     id="metadata15">
    <rdf:RDF>
      <cc:Work
         rdf:about="">
        <dc:format>image/svg+xml</dc:format>
        <dc:type
           rdf:resource="http://purl.org/dc/dcmitype/StillImage" />
        <dc:title>superficie</dc:title>
      </cc:Work>
    </rdf:RDF>
  </metadata>
  <defs
     id="defs13" />
  <sodipodi:namedview
     pagecolor="#ffffff"
     bordercolor="#666666"
     borderopacity="1"
     objecttolerance="10"
     gridtolerance="10"
     guidetolerance="10"
     inkscape:pageopacity="0"
     inkscape:pageshadow="2"
     inkscape:window-width="753"
     inkscape:window-height="480"
     id="namedview11"
     showgrid="false"
     inkscape:zoom="8.8888889"
     inkscape:cx="-4.779712"
     inkscape:cy="9.6066598"
     inkscape:window-x="0"
     inkscape:window-y="27"
     inkscape:window-maximized="0"
     inkscape:current-layer="svg9" />
  <title
     id="title2">superficie</title>
  <g
     id="02.-dashboard"
     fill="none"
     fill-rule="evenodd"
     style="fill:#000000">
    <g
       transform="translate(-608 -974)"
       fill="#002438"
       fill-rule="nonzero"
       style="fill:#000000"
       id="g6">
      <g
         id="superficie"
         transform="translate(608 974)"
         style="fill:#000000">
        <path
           id="Shape"
           d="m19.12 8.4285-2.8606-1.5018 2.8573-1.8536-9.5569-5.061-9.5569 5.061 2.8573 1.8536-2.8605 1.5018 2.8605 1.8557-2.8605 1.5018 9.5602 6.2019 9.5602-6.2019-2.8605-1.5018 2.8605-1.8557zm-2.2103-3.2577-1.8963 1.2302-1.659-1.027 1.7728-1.1471 1.7825 0.94392zm-8.38 1.992-1.6267 1.0526-1.8527-1.2019 1.6739-1.0189 1.8054 1.1682zm-0.7439-1.8144 1.7149-1.0439 1.7612 1.0903-1.7022 1.1014-1.774-1.1479zm1.774 2.4809 1.628 1.0534-1.628 1.0561-1.628-1.0561 1.628-1.0534zm1.0301-0.66656 1.725-1.1161 1.6604 1.0278-1.7587 1.1409-1.6267-1.0526zm3.4044-3.5359-1.6927 1.0953-1.7287-1.0702 1.6139-0.98238 1.8076 0.95729zm-4.4345-2.3484 1.4759 0.78158-1.53 0.93129-1.4663-0.90773 1.5204-0.80515zm-2.6664 1.4121 1.5402 0.9534-1.6911 1.0293-1.6172-1.0464 1.7681-0.9363zm-4.6836 2.4802 1.7825-0.94395 1.6886 1.0926-1.6725 1.0181-1.7985-1.1667zm0.0032863 3.3597 1.724-0.90512 5.6227 3.6476 5.6227-3.6476 1.724 0.90512-7.3467 4.7659-7.3467-4.7659zm14.693 3.3575-7.3467 4.7659-7.3467-4.7659 1.724-0.90512 5.6227 3.6476 5.6227-3.6476 1.7239 0.90512z"
           style="fill:#000000" />
      </g>
    </g>
  </g>
</svg>
