<svg width="2500" height="2185" version="1.1" viewBox="0 .43 1064 928.69" xmlns="http://www.w3.org/2000/svg">
 <rect x="53.45" y="351.05" width="931" height="578.07" rx="36.88" fill="#4989f5" style="fill:none;stroke-width:42.56;stroke:#fff"/>
 <path d="m266.03 349.56h266v-349.12h-226.17z" fill="#3c4ba6" style="fill:#fff"/>
 <path d="m984.78 67.8-0.33-1.19c-8.433-38.617-42.613-66.155-82.14-66.18h-144.11l39.8 349.13h266z" fill="#3f51b5" style="fill:#fff"/>
 <path d="m79.61 66.62-0.33 1.19c0.08-0.42 0.24-0.81 0.33-1.19z" fill="#7babf7"/>
 <path d="m79.27 67.8 0.33-1.19c8.433-38.617 42.613-66.155 82.14-66.18h144.12l-39.86 349.13h-266z" fill="#7babf7" style="fill:#fff;stroke-width:4.256;stroke:#fff"/>
 <path d="m266.48 349.47c0 73.412-59.513 132.92-132.92 132.92s-132.92-59.513-132.92-132.92z" fill="#709be0" style="fill-rule:evenodd;fill:#fff;stroke-width:4.256;stroke:#fff"/>
 <path d="m532.33 349.47c0 73.412-59.513 132.92-132.92 132.92s-132.92-59.513-132.92-132.92z" fill="#3c4ba6" style="fill-rule:evenodd;fill:#fff"/>
 <path d="m798.03 349.56h-266v-349.12h226.17zm186.42-282.94 0.33 1.19c-0.08-0.42-0.24-0.81-0.33-1.19z" fill="#7babf7" style="fill:#fff;stroke-width:4.256;stroke:#fff"/>
 <path d="m798.18 349.47c0 73.412-59.513 132.92-132.92 132.92s-132.92-59.513-132.92-132.92z" fill="#709be0" style="fill-rule:evenodd;fill:#fff;stroke-width:4.256;stroke:#fff"/>
 <path d="m1064 349.47c0 73.412-59.513 132.92-132.92 132.92s-132.92-59.513-132.92-132.92z" fill="#3c4ba6" style="fill-rule:evenodd;fill:#fff"/>
 <path d="m931.08 709.6c-0.47-6.33-1.25-12.11-2.36-19.49h-145c0 20.28 0 42.41-0.08 62.7h84a73.05 73.05 0 0 1-30.75 46.89s0-0.35-0.06-0.36a88 88 0 0 1-34 13.27 99.85 99.85 0 0 1-36.79-0.16 91.9 91.9 0 0 1-34.31-14.87 95.72 95.72 0 0 1-33.73-43.1c-0.52-1.35-1-2.71-1.49-4.09v-0.15l0.13-0.1a93 93 0 0 1-0.05-59.84 96.27 96.27 0 0 1 22.31-36.3c23.587-24.399 58.829-33.576 91.32-23.78a83 83 0 0 1 33.23 19.56l28.34-28.34c5-5.05 10.19-9.94 15-15.16a149.78 149.78 0 0 0-49.64-30.74 156.08 156.08 0 0 0-103.83-0.91c-1.173 0.4-2.34 0.817-3.5 1.25a155.18 155.18 0 0 0-83.82 75.12 152.61 152.61 0 0 0-13.42 38.78c-16.052 79.772 32.623 158.29 111.21 179.4 25.69 6.88 53 6.71 78.89 0.83a139.88 139.88 0 0 0 63.14-32.81c18.64-17.15 32-40 39-64.27a179 179 0 0 0 6.26-63.33z" fill="#fff"/>
</svg>
