<svg width="161" height="30" viewBox="0 0 161 30" fill="none" xmlns="http://www.w3.org/2000/svg">
<path d="M63.5783 20.9359C63.2575 21.3189 62.8084 21.6381 62.2952 21.9572C61.7178 22.2764 61.0762 22.5317 60.3705 22.7232C59.6648 22.9147 58.8949 23.0423 58.0609 23.0423C56.6495 23.0423 55.4305 22.7232 54.2757 22.0849C53.1851 21.4466 52.2869 20.4891 51.6453 19.3402C51.0038 18.1274 50.683 16.7232 50.683 15.1274C50.683 13.9785 50.8755 12.9572 51.2604 11.9998C51.6453 11.0423 52.2227 10.2125 52.9284 9.51041C53.6341 8.80828 54.4682 8.23381 55.3663 7.85084C56.2645 7.46786 57.2269 7.27637 58.2534 7.27637C59.0874 7.27637 59.8572 7.40403 60.6271 7.65935C61.3328 7.91467 61.9744 8.23381 62.5518 8.68062C63.1292 9.0636 63.5141 9.51041 63.8349 9.95722L62.231 11.553C61.6536 10.9785 61.0762 10.5317 60.4346 10.1487C59.7931 9.76573 59.0232 9.57424 58.2534 9.57424C57.3552 9.57424 56.5212 9.76573 55.7513 10.2125C54.9814 10.6593 54.3399 11.2976 53.8266 12.1274C53.3134 12.9572 53.1209 13.9147 53.1209 15.0636C53.1209 16.2764 53.3775 17.3615 53.8908 18.1274C54.404 18.9572 55.0456 19.5955 55.8796 19.9785C56.7136 20.3615 57.6118 20.6168 58.51 20.6168C59.4082 20.6168 60.178 20.4253 60.8196 20.1062C61.4611 19.787 62.0385 19.404 62.4235 18.9572L63.5783 20.9359Z" fill="black"/>
<path d="M66.2728 22.8512V6.51074H68.5824V22.8512H66.2728Z" fill="black"/>
<path fill-rule="evenodd" clip-rule="evenodd" d="M82.4401 22.7875V11.2343V11.1705H80.0022V12.7024C79.6172 12.2556 79.1681 11.8726 78.5266 11.4896C77.9492 11.1705 77.2435 10.979 76.4094 10.979C75.3188 10.979 74.2923 11.2343 73.4583 11.745C72.6242 12.2556 71.9827 12.9577 71.4694 13.8513C71.0204 14.745 70.7637 15.8301 70.7637 16.979C70.7637 18.1279 71.0204 19.213 71.4694 20.1067C71.9185 21.0641 72.5601 21.7662 73.3941 22.2769C74.2281 22.7875 75.1263 23.0428 76.0887 23.0428C77.051 23.0428 77.8209 22.8513 78.5266 22.4045C79.2323 22.0216 79.7455 21.5747 80.1305 21.0641V22.7875H82.4401ZM78.5266 20.4258C78.0133 20.745 77.3718 20.9365 76.6661 20.9365C75.9603 20.9365 75.3829 20.8088 74.8697 20.4258C74.3565 20.1067 73.9715 19.6599 73.6507 19.0216C73.33 18.3833 73.2016 17.745 73.2016 16.979C73.2016 16.2769 73.33 15.5747 73.6507 15.0003C73.9074 14.4258 74.3565 13.9152 74.8697 13.596C75.3829 13.2769 75.9603 13.0854 76.6661 13.0854C77.3718 13.0854 78.0133 13.2769 78.5266 13.596C79.0398 13.9152 79.4248 14.4258 79.7455 15.0003C80.0663 15.5747 80.1946 16.213 80.1946 16.979C80.1946 17.745 80.0663 18.4471 79.7455 19.0216C79.4889 19.596 79.0398 20.1067 78.5266 20.4258Z" fill="black"/>
<path d="M92.3201 14.2979C91.9351 13.915 91.4219 13.532 90.9086 13.2767C90.3954 13.0213 89.8822 12.8937 89.4331 12.8937C89.1123 12.8937 88.7915 12.9575 88.5349 13.0213C88.2141 13.0852 87.9575 13.2128 87.765 13.4043C87.5725 13.5958 87.4442 13.915 87.4442 14.2979C87.4442 14.8086 87.7009 15.1916 88.1499 15.4469C88.599 15.6384 89.1764 15.8937 89.8822 16.0213C90.4596 16.2128 91.1011 16.4043 91.6785 16.6596C92.2559 16.915 92.705 17.2341 93.0899 17.7447C93.4749 18.1916 93.6673 18.8298 93.6673 19.7235C93.6673 20.4256 93.4749 21.0639 93.0258 21.5745C92.5767 22.0852 92.0634 22.4681 91.4219 22.7235C90.7803 22.9788 90.0746 23.1064 89.3689 23.1064C88.5349 23.1064 87.7009 22.9788 86.8668 22.6596C86.0328 22.3405 85.3271 21.8298 84.7497 21.1277L86.2894 19.7873C86.6744 20.2341 87.1235 20.6171 87.6367 20.8724C88.1499 21.1277 88.7915 21.2554 89.4972 21.2554C89.7538 21.2554 90.0746 21.1916 90.3312 21.1277C90.5879 21.0639 90.8445 20.8724 91.037 20.6809C91.2294 20.4894 91.3577 20.1703 91.3577 19.7873C91.3577 19.4043 91.2294 19.149 91.037 18.9575C90.8445 18.766 90.5237 18.5745 90.2029 18.4469C89.818 18.3192 89.4331 18.1916 89.0481 18.1277C88.4066 17.9362 87.765 17.7447 87.1876 17.4894C86.5461 17.2341 86.0328 16.8511 85.6479 16.4043C85.2629 15.9575 85.0063 15.2554 85.0063 14.4256C85.0063 13.7235 85.1988 13.149 85.5837 12.6384C85.9687 12.1277 86.4819 11.7447 87.1235 11.4894C87.765 11.2341 88.4707 11.1064 89.1764 11.1064C89.8822 11.1064 90.652 11.2341 91.4219 11.5533C92.2559 11.8724 92.8975 12.3192 93.4107 12.9575L92.3201 14.2979Z" fill="black"/>
<path fill-rule="evenodd" clip-rule="evenodd" d="M96.6185 8.36192C96.8751 8.61724 97.26 8.7449 97.7733 8.7449C98.2865 8.7449 98.6714 8.61724 98.9281 8.29809C99.1847 7.97894 99.313 7.65979 99.313 7.27681C99.313 6.89384 99.1847 6.51086 98.9281 6.25554C98.6714 6.00022 98.2865 5.87256 97.7733 5.87256C97.26 5.87256 96.8751 6.00022 96.6185 6.31937C96.3618 6.63852 96.2335 6.95766 96.2335 7.34064C96.2335 7.72362 96.3618 8.1066 96.6185 8.36192ZM96.6185 11.2343V22.8513H98.9281V11.2343H96.6185Z" fill="black"/>
<path d="M108.487 11.0427C109.514 11.0427 110.348 11.2341 110.925 11.681C111.503 12.1278 111.888 12.7022 112.144 13.4044C112.401 14.1065 112.465 14.9363 112.465 15.8299V22.915H110.155V15.9576C110.155 15.3831 110.091 14.8724 109.963 14.4256C109.835 13.9788 109.578 13.6597 109.193 13.4044C108.808 13.149 108.359 13.0214 107.717 13.0852C107.14 13.0852 106.627 13.2129 106.113 13.4682C105.664 13.7235 105.279 14.0427 105.023 14.4895C104.766 14.8724 104.638 15.3831 104.638 15.8299V22.8512H102.328V6.51074H104.638V13.0852C105.023 12.5107 105.536 12.0639 106.178 11.6171C106.948 11.2341 107.653 11.0427 108.487 11.0427Z" fill="black"/>
<path fill-rule="evenodd" clip-rule="evenodd" d="M126.002 20.1706C126.515 19.277 126.772 18.1919 126.772 17.043C126.772 15.8302 126.515 14.8089 126.002 13.9153C125.489 13.0217 124.783 12.3196 123.885 11.8089C122.987 11.2983 121.96 11.043 120.869 11.043C119.779 11.043 118.752 11.2983 117.854 11.8089C116.956 12.3196 116.25 13.0217 115.737 13.9153C115.224 14.8089 114.967 15.8302 114.967 17.043C114.967 18.2557 115.224 19.277 115.737 20.1706C116.25 21.0642 116.956 21.7664 117.854 22.277C118.752 22.7876 119.779 23.043 120.869 23.043C121.96 23.043 122.987 22.7876 123.885 22.277C124.783 21.7664 125.489 21.0642 126.002 20.1706ZM123.949 15.0004C124.27 15.5749 124.398 16.277 124.398 17.043C124.462 17.8089 124.27 18.5111 123.949 19.0855C123.628 19.66 123.243 20.1706 122.666 20.4898C122.088 20.8089 121.511 21.0004 120.805 21.0004C120.099 21.0004 119.522 20.8089 118.945 20.4898C118.431 20.1706 117.982 19.66 117.662 19.0855C117.341 18.5111 117.212 17.8089 117.212 17.043C117.212 16.277 117.341 15.5749 117.662 15.0004C117.982 14.3621 118.367 13.9153 118.945 13.5962C119.522 13.277 120.099 13.0855 120.805 13.0855C121.511 13.0855 122.088 13.277 122.666 13.5962C123.179 13.9153 123.628 14.4259 123.949 15.0004Z" fill="black"/>
<path d="M135.176 11.043C136.138 11.043 136.908 11.2345 137.486 11.6813C138.063 12.1281 138.448 12.7025 138.705 13.4685C138.897 13.0855 139.218 12.7025 139.603 12.3834C139.988 12.0004 140.437 11.6813 141.014 11.4259C141.527 11.1706 142.105 11.043 142.746 11.043C143.773 11.043 144.543 11.2345 145.12 11.6813C145.698 12.1281 146.083 12.7025 146.275 13.4047C146.532 14.1068 146.596 14.9366 146.596 15.8302V22.7876H144.286V16.0217C144.286 15.1919 144.094 14.4898 143.773 13.9791C143.452 13.4685 142.811 13.2132 141.912 13.2132C141.078 13.2132 140.373 13.4685 139.795 14.043C139.218 14.5536 138.961 15.2557 138.961 16.0217V22.9791H136.652V15.9579C136.652 15.1281 136.459 14.4259 136.138 13.9153C135.753 13.4047 135.176 13.1494 134.406 13.1494C133.829 13.1494 133.316 13.277 132.866 13.5323C132.417 13.7876 132.097 14.1068 131.84 14.4898C131.583 14.8728 131.455 15.3196 131.455 15.8302V22.7876H129.145V11.2345H131.455V13.0855C131.84 12.5749 132.289 12.0642 132.931 11.6813C133.636 11.2345 134.342 11.043 135.176 11.043Z" fill="black"/>
<path fill-rule="evenodd" clip-rule="evenodd" d="M157.695 22.5321C158.529 22.1491 159.17 21.7661 159.684 21.3193L158.529 19.5321C158.208 19.8512 157.823 20.1065 157.31 20.4257C156.797 20.7448 156.155 20.8725 155.321 20.8725C154.23 20.8725 153.268 20.6172 152.562 19.9789C151.857 19.3406 151.407 18.5108 151.279 17.4895H160.197V16.5321C160.197 15.3831 159.94 14.4257 159.491 13.5959C158.978 12.7661 158.336 12.064 157.566 11.6172C156.797 11.1704 155.898 10.915 154.936 10.915C153.845 10.915 152.883 11.1704 151.985 11.681C151.087 12.1916 150.381 12.8938 149.804 13.7874C149.226 14.681 148.97 15.8299 148.97 17.1065C148.97 18.2555 149.226 19.2767 149.739 20.1704C150.253 21.064 151.023 21.7661 151.921 22.2767C152.819 22.7874 153.91 23.0427 155.128 23.0427C156.027 23.0427 156.861 22.915 157.695 22.5321ZM152.562 13.7235C153.268 13.2767 153.974 13.0853 154.872 13.0853C155.385 13.0853 155.834 13.2129 156.219 13.4682C156.668 13.6597 157.053 13.9789 157.31 14.3618C157.631 14.7448 157.759 15.1916 157.823 15.7023V15.8299H151.279C151.472 14.8087 151.921 14.1065 152.562 13.7235Z" fill="black"/>
<ellipse cx="3.9135" cy="15.0001" rx="3.9135" ry="3.89362" fill="#0082A5"/>
<ellipse cx="15.0766" cy="26.0425" rx="3.9135" ry="3.89362" fill="#0082A5"/>
<path d="M11.099 26.0426C11.099 24.1277 10.3291 22.3404 8.98181 21V21C7.63454 19.6596 5.77403 18.8936 3.91351 18.8936L7.82701 15C7.82701 16.9149 8.59688 18.7021 9.94415 20.0426V20.0426C11.2914 21.383 13.0878 22.1489 15.0124 22.1489L11.099 26.0426Z" fill="#FF453B"/>
<ellipse cx="3.9135" cy="15.0001" rx="3.9135" ry="3.89362" fill="#F1034A"/>
<ellipse cx="15.0766" cy="3.89362" rx="3.9135" ry="3.89362" fill="#F1034A"/>
<path d="M15.0766 7.78717C13.1519 7.78717 11.3556 8.55313 10.0083 9.89355V9.89355C8.66103 11.234 7.89116 13.0212 7.89116 14.9361L3.97766 11.0425C5.90233 11.0425 7.69869 10.2765 9.04596 8.93611V8.93611C10.3932 7.59568 11.1631 5.74462 11.1631 3.89355L15.0766 7.78717Z" fill="#F1034A"/>
<ellipse cx="15.0766" cy="26.0425" rx="3.9135" ry="3.89362" fill="#DC314F"/>
<ellipse cx="26.1755" cy="15.0001" rx="3.9135" ry="3.89362" fill="#DC314F"/>
<path d="M26.1755 18.8936C24.2509 18.8936 22.4545 19.6596 21.1072 21V21C19.76 22.3404 18.9901 24.1915 18.9901 26.0426L15.0766 22.1489C17.0013 22.1489 18.7976 21.383 20.1449 20.0426V20.0426C21.4922 18.7021 22.262 16.8511 22.262 15L26.1755 18.8936Z" fill="#DC314F"/>
<ellipse cx="26.1755" cy="3.89362" rx="3.9135" ry="3.89362" fill="#FF7C59"/>
<path d="M26.1755 7.78717C24.2509 7.78717 22.4545 8.55313 21.1072 9.89355V9.89355C19.76 11.234 18.9901 13.0212 18.9901 14.9361L15.0766 11.0425C17.0013 11.0425 18.7976 10.2765 20.1449 8.93611V8.93611C21.4922 7.59568 22.262 5.74462 22.262 3.89355L26.1755 7.78717Z" fill="#FF7C59"/>
<ellipse cx="15.0766" cy="15.0001" rx="3.9135" ry="3.89362" fill="#FFAF6C"/>
<ellipse cx="37.2745" cy="15.0001" rx="3.9135" ry="3.89362" fill="#FF7C59"/>
<path d="M37.2745 18.8936C35.3498 18.8936 33.5534 19.6596 32.2062 21V21C30.8589 22.3404 30.089 24.1915 30.089 26.0426L26.1755 22.1489C28.1002 22.1489 29.8966 21.383 31.2438 20.0426V20.0426C32.5911 18.7021 33.361 16.8511 33.361 15L37.2745 18.8936Z" fill="#FF7C59"/>
<ellipse cx="26.1755" cy="26.0425" rx="3.9135" ry="3.89362" fill="#FFAF6C"/>
</svg>
