<svg width="21" height="30" version="1.1" viewBox="0 0 21 30" xmlns="http://www.w3.org/2000/svg">
 <path d="m8.7459 29.092c0.32731 0.5689 0.91371 0.9085 1.5686 0.9085 0.6548 0 1.2411-0.3396 1.5684-0.9085l0.0101-0.018 7.4392-13.616c1.7758-3.2503 1.7248-7.1081-0.1362-10.32-1.8208-3.142-5.0547-5.0616-8.6509-5.135-0.1535-0.0031641-0.3079-0.0031641-0.4616 0-3.5961 0.073359-6.83 1.9929-8.6507 5.135-1.8611 3.2116-1.912 7.0696-0.13623 10.32l7.4392 13.616 0.01013 0.018zm1.3758-27.215c0.0641-0.00129 0.1283-0.00193 0.1927-0.00193s0.1287 6.4e-4 0.1926 0.00193c2.9355 0.05989 5.5772 1.6302 7.0666 4.2005 1.5299 2.6399 1.5721 5.8103 0.1132 8.4807l-7.3724 13.494-7.3724-13.494c-1.4589-2.6704-1.4166-5.8407 0.11308-8.4807 1.4894-2.5703 4.1312-4.1406 7.0667-4.2005z" clip-rule="evenodd" fill="#fff" fill-rule="evenodd" style="fill:#fff"/>
 <path d="m6.0957 9.375c0 2.3262 1.8925 4.2188 4.2188 4.2188 2.3262 0 4.2187-1.8926 4.2187-4.2188s-1.8925-4.2188-4.2187-4.2188c-2.3263 0-4.2188 1.8925-4.2188 4.2188zm1.875 0c0-1.2923 1.0514-2.3438 2.3438-2.3438 1.2923 0 2.3437 1.0514 2.3437 2.3438 0 1.2923-1.0514 2.3438-2.3437 2.3438-1.2924 0-2.3438-1.0515-2.3438-2.3438z" clip-rule="evenodd" fill="#fff" fill-rule="evenodd" style="fill:#fff"/>
</svg>
